<svg width="150" height="150" viewBox="0 0 150 150" fill="none" xmlns="http://www.w3.org/2000/svg" style="width: 200px; height: 200px; transform: rotateY(0deg);"><style>
     .loading16-a {animation:loading16-pulse 1s infinite linear; opacity: .2;}
     .loading16-b {animation:loading16-pulse 1s 143ms infinite linear; opacity: .2;}
     .loading16-c {animation:loading16-pulse 1s 286ms infinite linear; opacity: .2;}
     .loading16-d {animation:loading16-pulse 1s 429ms infinite linear; opacity: .2;}
     .loading16-e {animation:loading16-pulse 1s 572ms infinite linear; opacity: .2;}
     .loading16-f {animation:loading16-pulse 1s 715ms infinite linear; opacity: .2;}
     .loading16-g {animation:loading16-pulse 1s 858ms infinite linear; opacity: .2;}
     .loading16-h {animation:loading16-pulse 1s 1s infinite linear; opacity: .2;}
     @keyframes loading16-pulse {
         0%{opacity: .2;}
         30%{opacity: 1;}
         50%{opacity: .2;}
         100%{opacity: .2;}
     }
     @media (prefers-reduced-motion: reduce) {
         .loading16-a, .loading16-b, .loading16-c, .loading16-d, .loading16-e, .loading16-f, .loading16-g, .loading16-h {
             animation: none;
         }
     }
    </style><path class="fillCls2" d="M62.9626 94.34L65.2345 94.3908C82.9775 94.8223 99.6799 86.0269 109.364 71.1395L112.092 56.709H135.978C138.707 56.709 140.712 59.2727 140.065 61.9126C137.019 74.2617 127.602 105.052 107.447 115.002C82.013 127.567 63.1911 112.908 63.1911 112.908L55.1445 107.273L62.9626 94.34Z" fill="#072A3D" stroke-width="2px" style="animation-duration: 1s;"></path><path class="fillCls2" d="M35.8538 126.717C33.9754 127.237 31.9955 127.199 30.079 127.555C28.3403 127.872 26.538 128.646 25.5735 130.08C25.4465 130.271 25.5862 130.537 25.8146 130.55C32.5158 130.778 39.2298 131.07 45.8929 130.347C46.3879 130.296 46.7814 129.89 46.8067 129.382C46.9083 127.491 47.1621 125.245 47.5683 123.531C47.6063 123.366 40.9178 122.402 40.1817 122.909C39.5851 123.315 39.3567 124.496 38.8109 125.054C38.0241 125.867 36.9453 126.412 35.8538 126.717Z" fill="#072A3D" stroke-width="2px" style="animation-duration: 1s;"></path><path class="fillCls2" d="M96.247 119.002L94.9941 119.269L96.836 121.661H98.0971L96.247 119.002Z" fill="#072A3D" stroke-width="2px" style="animation-duration: 1s;"></path><path class="fillCls8" d="M59.0486 94.2126L61.3204 94.2633C79.0635 94.6949 95.7658 85.8995 105.45 71.0121L108.178 56.5815H132.064C134.793 56.5815 136.798 59.1453 136.151 61.7852C133.105 74.1342 123.688 104.924 103.533 114.875C78.0989 127.44 59.277 112.781 59.277 112.781L51.2305 107.145L59.0486 94.2126Z" fill="#B7E3F0" stroke-width="2px" style="animation-duration: 1s;"></path><path class="fillCls1" d="M86.0223 108.707L70.3353 92.3724C70.3353 92.3724 68.4569 91.8774 66.5658 91.7886C65.9312 90.1006 65.0047 88.603 63.5706 87.6257C62.0729 86.6104 60.2073 86.3184 58.4431 86.5723C52.5034 87.4226 48.8228 93.54 44.6345 97.4999C40.0528 101.84 35.268 105.927 30.6989 110.28C30.0644 110.877 23.3123 117.642 23.4393 117.756C25.7365 119.977 29.0363 120.523 32.1331 120.98C32.755 121.068 33.3896 121.157 33.9988 120.98C34.5065 120.84 34.938 120.51 35.3695 120.205C44.9772 113.161 63.9513 97.8298 63.9513 97.8298C72.7975 108.707 86.0223 108.707 86.0223 108.707Z" fill="rgba(140,119,113,1)" stroke-width="2px" style="animation-duration: 1s;"></path><path class="fillCls3" d="M92.9548 77.7255L94.8586 79.6039L100.709 68.2702L104.809 67.4198L111.167 62.762C111.167 62.762 114.797 65.3892 117.082 66.0237C118.491 66.4172 120.229 69.3236 121.359 71.4939C122.133 72.9915 122.362 74.7176 121.994 76.3675L120.077 84.8456C118.846 90.303 116.485 95.4432 113.135 99.9234C109.594 104.657 104.936 109.785 101.179 110.051C101.179 110.051 88.6523 95.329 88.5254 91.6484L91.4445 86.4067L89.7565 83.513L92.9548 77.7255Z" fill="#21B787" stroke-width="2px" style="animation-duration: 1s;"></path><path class="fillCls5" d="M95.4551 60.6941C95.9247 60.6687 96.3816 60.6434 96.8512 60.618C96.9273 62.2552 97.0035 63.9178 97.6634 65.4155C98.3234 66.9131 99.7068 68.1949 101.344 68.2584C102.867 68.3092 104.25 67.3192 105.773 67.2685C106.992 67.2304 108.134 66.5704 109.01 65.7201C109.886 64.857 110.533 63.8036 111.167 62.7629C110.317 61.8364 109.454 60.8718 109.073 59.6788C108.528 57.9781 109.061 56.1251 108.731 54.3736C108.439 52.8252 107.461 51.4418 106.192 50.49C104.923 49.5381 103.387 48.9923 101.826 48.7385C100.76 48.5608 99.5799 48.5481 98.7169 49.1954C97.9681 49.7665 97.6635 50.6803 97.2573 51.4926C96.9146 52.178 96.0516 52.8506 95.8866 53.5614C95.6581 54.5132 96.2293 55.9855 96.1785 57.0135C96.1404 58.27 95.8993 59.5265 95.4551 60.6941Z" fill="#FDC584" stroke-width="2px" style="animation-duration: 1s;"></path><path class="fillCls6" d="M104.072 54.5891C102.498 57.1655 102.612 60.3892 102.79 63.4098C101.546 63.1814 100.404 62.4834 99.5914 61.5188C99.1472 60.9857 98.4364 60.7192 97.7511 60.8207L97.0023 60.935C96.9134 60.9476 96.8119 60.9603 96.7357 61.0111C96.6088 61.0873 96.5327 61.2269 96.4819 61.3538C95.9488 62.7753 96.9134 64.4633 96.2915 65.8467C96.2027 66.0497 96.0885 66.2528 96.1138 66.4686C96.1773 67.0016 97.0403 67.192 97.015 67.725C97.0023 67.8773 96.9261 68.0043 96.8754 68.1439C96.685 68.6896 97.0276 69.3242 97.5353 69.6034C98.043 69.8826 98.6649 69.8699 99.236 69.7557C99.8071 69.6415 100.353 69.4257 100.924 69.3115C102.104 69.0831 103.488 69.248 104.313 68.385C104.909 67.7631 104.973 66.8112 104.985 65.9482C104.998 63.0672 104.643 60.1861 104.668 57.2924C104.668 56.7721 104.693 56.239 104.871 55.744C105.112 55.0714 105.721 54.4875 106.521 54.6399C106.953 54.7287 107.321 55.0206 107.524 55.4267C108.019 56.4548 107.257 57.5716 106.255 57.8509C106.242 58.6758 106.711 59.615 107.435 60.0338C108.158 60.4527 109.097 60.4273 109.808 59.9958C109.097 58.1301 110.126 56.0994 110.354 54.1195C110.608 51.835 109.669 49.4489 107.93 47.9386C106.191 46.4283 103.704 45.8445 101.47 46.4156C99.3629 46.9613 97.5988 48.4336 95.5173 49.0555C94.832 49.2586 94.0832 49.3855 93.5247 49.8424C92.9663 50.2993 92.7378 51.2512 93.2963 51.7207C93.512 51.8984 93.8293 51.9873 93.9816 52.2157C93.6263 52.1777 93.4359 52.6853 93.6136 53.0026C93.7912 53.3072 94.172 53.4341 94.5147 53.4976C95.1239 53.6245 95.7458 53.6499 96.3423 53.5103C97.3703 53.2691 98.208 52.533 99.0837 51.9365C99.731 51.505 100.416 51.1369 101.127 50.845C101.673 50.6293 102.32 50.4516 102.777 50.9719C102.891 51.1115 102.98 51.2765 103.031 51.4542C103.234 52.1777 102.917 52.9011 103.018 53.6245C103.069 54.1195 103.551 54.5891 104.072 54.5891Z" fill="#1C4367" stroke-width="2px" style="animation-duration: 1s;"></path><path class="fillCls5" d="M84.4238 74.426C84.1445 74.6799 83.9542 75.0098 83.8272 75.3525C83.18 77.1801 82.0885 78.8554 80.6797 80.1881C80.9462 80.9115 81.5681 81.0004 82.2789 80.7084C82.9896 80.4165 83.1673 80.0612 83.9795 79.16C84.2588 79.1347 84.4872 79.4139 84.5634 79.6931C84.6395 79.9723 84.6395 80.2642 84.7664 80.5181C85.0837 81.14 85.9341 81.1653 86.6321 81.1527C86.9748 81.1527 87.4698 81.1907 87.8886 81.3303C88.3455 81.4699 89.7035 83.0437 89.8558 82.5868C90.1097 81.8761 90.5793 80.4419 90.7823 80.0739C91.1758 79.325 91.6581 77.599 91.1377 76.7486C90.7062 76.0379 88.7897 75.2891 88.0917 74.9337C87.0383 74.3753 85.6168 73.3218 84.4238 74.426Z" fill="#FDC584" stroke-width="2px" style="animation-duration: 1s;"></path><path class="fillCls3" d="M90.8851 76.3931L88.5371 82.0282C88.5371 82.0282 88.6767 84.1604 89.9967 84.6046C90.6439 84.8204 93.36 77.9795 93.36 77.9795L90.8851 76.3931Z" fill="#21B787" stroke-width="2px" style="animation-duration: 1s;"></path><path class="fillCls2" d="M53.0139 69.7686L59.6136 90.0246H93.9702C93.9702 88.8824 93.0437 87.1817 91.8887 87.1817H81.4307L75.2245 69.2483C75.1102 68.6644 74.5899 68.2456 74.0061 68.2456H54.2323C53.4454 68.2583 52.8489 68.9944 53.0139 69.7686Z" fill="#072A3D" stroke-width="2px" style="animation-duration: 1s;"></path><path class="loading16-h fillCls9" d="M35 31.1959L38.5488 28L44 33.8041L40.4512 37L35 31.1959Z" fill="#0E4D46" stroke-width="2px" style="animation-duration: 1s;"></path><path class="loading16-g fillCls9" d="M39 40.032L38.6975 44L31 43.968L31.3361 40L39 40.032Z" fill="#0E4D46" stroke-width="2px" style="animation-duration: 1s;"></path><path class="loading16-f fillCls9" d="M43 50.2326L36.9066 56L34 52.7674L40.0934 47L43 50.2326Z" fill="#0E4D46" stroke-width="2px" style="animation-duration: 1s;"></path><path class="loading16-e fillCls9" d="M49.375 59H45L45.5903 51H50L49.375 59Z" fill="#0E4D46" stroke-width="2px" style="animation-duration: 1s;"></path><path class="loading16-d fillCls9" d="M62 52.8041L58.4512 56L53 50.1959L56.5488 47L62 52.8041Z" fill="#0E4D46" stroke-width="2px" style="animation-duration: 1s;"></path><path class="loading16-c fillCls9" d="M58.3361 40H66L65.6975 44H58L58.3361 40Z" fill="#0E4D46" stroke-width="2px" style="animation-duration: 1s;"></path><path class="loading16-b fillCls9" d="M63 31.8735L56.9179 37L54 34.1592L60.082 29L63 31.8735Z" fill="#0E4D46" stroke-width="2px" style="animation-duration: 1s;"></path><path class="loading16-a fillCls9" d="M51.4097 33H47L47.5903 25L52 25.0359L51.4097 33Z" fill="#0E4D46" stroke-width="2px" style="animation-duration: 1s;"></path><path class="fillCls1" d="M101.206 109.405C96.8909 114.025 90.9639 115.674 84.8211 113.847C79.3763 112.222 71.7232 105.876 62.3567 91.9155C60.1737 103.16 59.1711 102.907 57.3054 107.971C55.2493 113.555 50.4518 119.723 48.3069 125.269C45.1213 125.282 41.9484 124.736 38.9531 123.67C40.5904 115.243 49.2461 85.7093 51.3149 79.8964C51.6195 79.0334 52.0002 78.1069 52.7871 77.6119C53.1679 77.3708 53.5994 77.2693 54.0436 77.1931C56.3027 76.8123 58.6253 77.0154 60.821 77.7135C67.2049 79.7441 73.2335 83.0694 78.9702 86.5088C82.5873 88.6791 86.2172 90.8367 89.8343 93.007C92.0681 94.3396 94.3272 95.6977 96.1929 97.5126C99.2262 100.482 101.054 105.153 101.206 109.405Z" fill="rgba(140,119,113,1)" stroke-width="2px" style="animation-duration: 1s;"></path><path class="fillCls2" d="M107.266 115.089L106.197 115.599L114.813 126.304H116.143L107.266 115.089Z" fill="#072A3D" stroke-width="2px" style="animation-duration: 1s;"></path><path class="fillCls2" d="M73.9181 119.019L75.0938 119.262L71.1063 128.408H69.8828L73.9181 119.019Z" fill="#072A3D" stroke-width="2px" style="animation-duration: 1s;"></path><path class="fillCls2" d="M58.348 112.129L59.3223 112.808L54.3632 121.585H53.1172L58.348 112.129Z" fill="#072A3D" stroke-width="2px" style="animation-duration: 1s;"></path><path class="fillCls2" d="M30.359 118.403C29.3945 118.365 28.5187 117.832 27.5668 117.641C26.8434 117.502 26.0946 117.565 25.4093 117.832C24.7747 118.073 24.2162 118.492 23.6451 118.847C21.0941 120.446 18.0607 121.157 15.0655 121.627C14.0755 121.779 13.0856 121.906 12.1464 122.248C11.2072 122.591 10.3315 123.162 9.83648 124C9.4938 124.888 13.2379 124.508 14.9386 124.533C19.5584 124.584 24.1782 124.634 28.798 124.406C29.4072 124.381 30.0671 124.33 30.524 123.936C31.184 123.378 31.184 122.413 31.6028 121.728C32.0724 120.954 32.6055 120.256 33.4558 119.837C33.532 119.659 33.3543 119.444 33.2147 119.329C32.542 118.771 31.679 118.454 30.8032 118.441C30.6002 118.441 30.3844 118.454 30.1813 118.403C30.1687 118.225 30.2829 118.53 30.359 118.403Z" fill="#072A3D" stroke-width="2px" style="animation-duration: 1s;"></path><path class="fillCls7" fill-rule="evenodd" clip-rule="evenodd" d="M95.94 59.0223L95.8721 59.3262C95.8721 59.3262 95.4965 59.0223 95.3018 58.5424C95.2892 58.5113 95.2771 58.4817 95.2656 58.4533C95.1173 58.0896 95.0502 57.9249 94.9697 57.4037C94.8507 56.6321 94.8504 55.499 95.3479 55.4406C95.8156 55.3859 96.1619 56.4124 96.1619 56.4124C96.1619 56.4124 96.1942 56.7213 96.1954 56.9199C96.1967 57.1391 96.1619 57.4801 96.1619 57.4801L96.0182 56.8481L95.1899 56.9869C95.1899 56.9869 95.2749 57.7441 95.458 58.1888C95.6012 58.5364 95.94 59.0223 95.94 59.0223ZM95.1788 56.707L95.9243 56.5803C95.9243 56.5803 95.7605 55.6115 95.3674 55.6875C95.0697 55.7453 95.1788 56.707 95.1788 56.707Z" fill="#0A2A3C" stroke-width="2px" style="animation-duration: 1s;"></path><path class="fillCls7" d="M96.2487 55.9559C96.0514 55.9765 95.9609 56.0422 95.9609 56.0422L96.0925 56.2766C96.0925 56.2766 96.1994 56.2233 96.3597 56.2067C96.52 56.19 96.6844 56.2313 96.6844 56.2313V55.9765C96.6844 55.9765 96.417 55.9298 96.2487 55.9559Z" fill="#0A2A3C" stroke-width="2px" style="animation-duration: 1s;"></path><path class="fillCls7" fill-rule="evenodd" clip-rule="evenodd" d="M97.3123 54.7333C97.9954 54.6475 98.4791 55.7894 98.6657 56.6554C98.8639 57.5755 98.7859 58.8932 98.11 58.9983C97.4342 59.1035 96.8769 57.848 96.7317 56.9183C96.5959 56.0486 96.6293 54.8192 97.3123 54.7333ZM97.4066 55.0926C97.9061 55.0098 98.277 55.9553 98.4261 56.6752C98.5845 57.4401 98.546 58.5415 98.052 58.6402C97.558 58.7389 97.1316 57.6998 97.012 56.926C96.9001 56.2022 96.9071 55.1753 97.4066 55.0926Z" fill="#0A2A3C" stroke-width="2px" style="animation-duration: 1s;"></path><path class="fillCls7" d="M103.809 54.5066L98.5059 56.2203L98.5755 56.4754L104.02 54.6981L103.809 54.5066Z" fill="#0A2A3C" stroke-width="2px" style="animation-duration: 1s;"></path><path class="fillCls4" d="M114.166 89.8527C117.402 86.4359 121.225 80.0869 121.225 80.0869C121.225 80.0869 122.628 75.7164 122.02 72.9979C121.406 70.2541 118.249 66.7673 118.249 66.7673C118.249 66.7673 113.999 72.2721 111.46 75.8511C108.103 80.5835 103.336 88.2908 103.336 88.2908L93.4252 78.2512L90.3184 84.4622C90.3184 84.4622 93.7832 89.9902 96.7009 92.9278C99.0482 95.2912 100.005 98.2371 103.336 98.2879C103.336 98.2879 110.479 93.745 114.166 89.8527Z" fill="#4BD2A7" stroke-width="2px" style="animation-duration: 1s;"></path></svg>