<svg width="150" height="150" viewBox="0 0 150 150" fill="none" xmlns="http://www.w3.org/2000/svg" style="width: 200px; height: 200px; transform: rotateY(0deg);"><style>
     .loading17-a {animation:loading17-pulse 1s infinite linear; opacity: .2;}
     .loading17-b {animation:loading17-pulse 1s 143ms infinite linear; opacity: .2;}
     .loading17-c {animation:loading17-pulse 1s 286ms infinite linear; opacity: .2;}
     .loading17-d {animation:loading17-pulse 1s 429ms infinite linear; opacity: .2;}
     .loading17-e {animation:loading17-pulse 1s 572ms infinite linear; opacity: .2;}
     .loading17-f {animation:loading17-pulse 1s 715ms infinite linear; opacity: .2;}
     .loading17-g {animation:loading17-pulse 1s 858ms infinite linear; opacity: .2;}
     .loading17-h {animation:loading17-pulse 1s 1s infinite linear; opacity: .2;}
     @keyframes loading17-pulse {
         0%{opacity: .2;}
         30%{opacity: 1;}
         50%{opacity: .2;}
         100%{opacity: .2;}
     }
     @media (prefers-reduced-motion: reduce) {
         .loading17-a, .loading17-b, .loading17-c, .loading17-d, .loading17-e, .loading17-f, .loading17-g, .loading17-h {
             animation: none;
         }
     }
    </style><path class="loading17-h fillCls8" d="M105 33.1959L108.549 30L114 35.8041L110.451 39L105 33.1959Z" fill="#000000" stroke-width="2px" style="animation-duration: 1s;"></path><path class="loading17-g fillCls8" d="M109 42.032L108.697 46L101 45.968L101.336 42L109 42.032Z" fill="#000000" stroke-width="2px" style="animation-duration: 1s;"></path><path class="loading17-f fillCls8" d="M113 52.2326L106.907 58L104 54.7674L110.093 49L113 52.2326Z" fill="#000000" stroke-width="2px" style="animation-duration: 1s;"></path><path class="loading17-e fillCls8" d="M119.375 61H115L115.59 53H120L119.375 61Z" fill="#000000" stroke-width="2px" style="animation-duration: 1s;"></path><path class="loading17-d fillCls8" d="M132 54.8041L128.451 58L123 52.1959L126.549 49L132 54.8041Z" fill="#000000" stroke-width="2px" style="animation-duration: 1s;"></path><path class="loading17-c fillCls8" d="M128.336 42H136L135.697 46H128L128.336 42Z" fill="#000000" stroke-width="2px" style="animation-duration: 1s;"></path><path class="loading17-b fillCls8" d="M133 33.8735L126.918 39L124 36.1592L130.082 31L133 33.8735Z" fill="#000000" stroke-width="2px" style="animation-duration: 1s;"></path><path class="loading17-a fillCls8" d="M121.41 35H117L117.59 27L122 27.0359L121.41 35Z" fill="#000000" stroke-width="2px" style="animation-duration: 1s;"></path><path class="fillCls4" d="M86.3073 43.1836L84.6875 42.375C84.6875 42.375 81.6562 46.375 78.375 46.0312L78.0938 47.4759L78.375 49.4688L85.277 47.4759L86.3073 43.1836Z" fill="#21B787" stroke-width="2px" style="animation-duration: 1s;"></path><path class="fillCls2" d="M31.364 50.5669C31.364 50.5669 33.7475 63.1108 31.5453 69.1141C31.0311 70.5152 29.8228 71.5471 28.3574 71.8322L16.7695 74.0888L21.4047 84.7339L37.5437 92.6328L47.3299 91.774L52.8239 85.9355L49.5618 75.2905C49.5618 75.2905 43.0376 74.9476 43.5519 71.6855C44.0662 68.4235 45.9552 56.0608 45.9552 56.0608L40.9755 50.5669H31.364V50.5669Z" fill="#FAD485" stroke-width="2px" style="animation-duration: 1s;"></path><path class="fillCls1" d="M55.7436 39.2345C55.7436 39.2345 55.9151 61.212 49.5623 65.6757C49.5623 65.6757 39.2601 66.7059 36.1695 61.5548L33.0788 52.4543C33.0788 52.4543 26.5547 54.6862 26.3832 47.8191C26.2118 40.9505 31.1915 42.668 31.8772 44.2142C32.5645 45.7587 34.2805 36.6598 34.2805 36.6598L37.1997 29.2769L44.5827 31.8516L51.2782 35.9724L55.7436 39.2345Z" fill="#FFDE99" stroke-width="2px" style="animation-duration: 1s;"></path><path class="fillCls3" d="M62.4425 35.1151C61.0694 30.48 52.3117 16.7426 48.5354 19.319C46.2656 20.8668 45.7134 22.53 45.7018 23.7679C45.0524 21.8723 43.4584 19.2712 39.6079 19.4904C33.9293 19.8151 35.7623 23.3591 35.9815 23.7481C35.6997 23.2684 32.4821 18.0399 27.0738 20.0064C21.4085 22.0668 20.3783 27.9052 22.2656 33.9135C22.2656 33.9135 17.8019 32.7118 18.8321 36.4882C19.8623 40.2662 25.7486 41.7547 26.4969 45.9036C26.4969 45.9036 28.3085 42.2657 30.6639 43.497C31.3595 43.8613 31.8442 44.5338 32.0271 45.297C32.2645 46.281 32.8052 47.8041 33.7694 46.9618C35.1425 45.7602 34.6282 33.0547 38.7491 34.4278C42.87 35.8008 44.5876 40.0931 48.7084 40.7805C48.7084 40.7805 43.5573 38.7201 43.0431 34.942C43.0431 34.942 44.52 37.5596 48.2683 39.8146C52.2062 42.1832 56.8941 42.9761 61.4139 42.1536C61.4139 42.1536 56.2628 41.9821 56.2628 41.2948C56.2612 41.2948 63.8156 39.7503 62.4425 35.1151Z" fill="rgba(130,133,144,1)" stroke-width="2px" style="animation-duration: 1s;"></path><path class="fillCls4" d="M26.379 72.2178C26.379 72.2178 17.6263 70.4837 11.6164 74.9491C5.60655 79.4145 8.86864 120.622 15.0499 124.227L17.4532 125.771L12.3021 138.305C12.3021 138.305 57.6301 140.194 61.5796 138.305L61.873 129.927C62.2504 119.151 62.0378 108.364 61.2367 97.6123C61.2367 97.6123 85.7905 98.6425 88.5367 93.8343C91.2845 89.026 92.1416 62.4134 86.3048 43.1821C86.3048 43.1821 81.3251 49.3634 78.063 47.4744C78.063 47.4744 76.174 74.9458 76.174 81.8145C76.174 81.8145 68.7911 80.9557 62.6098 78.2096C56.4285 75.4618 48.7801 75.2161 48.7801 75.2161C48.7801 75.2161 46.7362 86.026 38.5719 85.4211C29.3032 84.7354 26.379 72.2178 26.379 72.2178Z" fill="#21B787" stroke-width="2px" style="animation-duration: 1s;"></path><path class="fillCls1" d="M61.7441 135.472C61.7441 135.472 63.9859 134.7 65.3606 135.215C66.7337 135.729 67.9354 137.104 72.5722 135.215C77.2073 133.326 78.7535 131.952 78.7535 131.952L80.9837 135.215L80.4694 124.225L74.2881 120.792C74.2881 120.792 65.3965 126.543 61.9629 126.723L61.7441 135.472Z" fill="#FFDE99" stroke-width="2px" style="animation-duration: 1s;"></path><path class="fillCls5" d="M60.67 126.147C60.67 126.147 52.3112 123.025 40.8074 118.733C29.3036 114.44 26.0415 114.783 26.0415 114.783C26.0415 114.783 26.3843 98.987 24.8398 91.604C24.8398 91.604 29.5805 97.6797 31.125 105.75C32.6695 113.82 61.9416 121.125 61.9416 121.125V126.658L60.67 126.147Z" fill="#0A8A61" stroke-width="2px" style="animation-duration: 1s;"></path><path class="fillCls4" d="M59.8306 125.833L61.9495 126.658L61.8411 135.746L58.082 135.484C58.082 135.484 60.8608 135.277 59.8306 125.833Z" fill="#21B787" stroke-width="2px" style="animation-duration: 1s;"></path><path class="fillCls5" d="M61.5836 138.305C61.5836 138.305 61.6462 137.352 61.7385 135.742C60.8501 135.668 59.8841 135.607 58.8358 135.557C33.0803 134.356 17.4556 125.771 17.4556 125.771L14.6875 132.562C14.6875 132.562 57.6341 140.194 61.5836 138.305Z" fill="#0A8A61" stroke-width="2px" style="animation-duration: 1s;"></path><path class="fillCls5" d="M79 93.8358C69.3852 92.977 60.7246 91.6039 60.7246 91.6039L61.2883 98.288C61.2719 98.0638 61.257 97.838 61.2405 97.6138C61.2405 97.6138 85.7944 98.644 88.5405 93.8358C89.7487 91.7226 90.591 85.3946 90.6603 77.3325C88.7795 83.2056 85.8291 94.444 79 93.8358Z" fill="#0A8A61" stroke-width="2px" style="animation-duration: 1s;"></path><path class="fillCls1" d="M84.6759 42.4124C84.6759 42.4124 77.8073 30.2212 73.515 27.3036L71.1117 26.4448C71.1117 26.4448 63.5573 35.7168 61.1523 38.1201C61.1523 38.1201 62.8699 39.3217 66.132 36.4025L67.6765 34.858L65.4446 38.4629L67.8479 43.0981H69.9084L70.4227 42.4107L71.2815 43.6124L72.999 43.0981L73.3419 42.5838L74.5435 43.0981L74.8864 42.4107C74.8864 42.4107 75.7452 44.814 78.1485 45.6728L78.5243 46.2481C78.5259 46.2497 81.4139 46.3602 84.6759 42.4124Z" fill="#FFDE99" stroke-width="2px" style="animation-duration: 1s;"></path><path class="fillCls2" d="M76.178 36.8309C72.5731 36.1435 70.6841 31.3369 70.6841 31.3369L67.6791 34.8561L65.4473 38.4611L67.8506 43.0962H69.911L70.4253 42.4089L71.2841 43.6105L73.0017 43.0962L73.3445 42.582L74.5462 43.0962L74.8214 42.5457C74.8148 42.4715 74.8099 42.399 74.8033 42.3248C74.6995 41.1907 74.35 40.8611 74.0846 40.7803H74.4588L76.178 36.8309Z" fill="#FAD485" stroke-width="2px" style="animation-duration: 1s;"></path><path class="fillCls5" d="M78.0667 47.4761C78.0667 47.4761 76.1926 74.748 76.1777 81.7403C77.2739 81.742 79.489 81.7646 81.5 83.375C81.5 83.375 79.1876 59.5898 80.4074 47.7002C79.5915 47.9162 78.7871 47.8948 78.0667 47.4761Z" fill="#0A8A61" stroke-width="2px" style="animation-duration: 1s;"></path><path class="fillCls6" d="M127.892 139.344H39.8516C39.0521 139.344 38.4043 138.696 38.4043 137.897V137.776C38.4043 136.977 39.0521 136.329 39.8516 136.329H127.892C128.691 136.329 129.339 136.977 129.339 137.776V137.897C129.339 138.696 128.691 139.344 127.892 139.344Z" fill="rgba(177,177,177,1)" stroke-width="2px" style="animation-duration: 1s;"></path><path class="fillCls6" d="M142.314 89.0923H88.4082C87.6813 89.0923 87.0368 89.5588 86.8093 90.2494L72.6153 133.362C72.256 134.453 73.067 135.576 74.2142 135.576H128.12C128.847 135.576 129.492 135.109 129.719 134.419L143.913 91.3077C144.271 90.2148 143.46 89.0923 142.314 89.0923Z" fill="rgba(177,177,177,1)" stroke-width="2px" style="animation-duration: 1s;"></path><path class="fillCls7" d="M110.258 114.4C111.814 113.334 112.403 111.488 111.574 110.278C110.745 109.067 108.811 108.95 107.255 110.016C105.699 111.083 105.11 112.928 105.939 114.139C106.769 115.349 108.703 115.466 110.258 114.4Z" fill="rgba(179,145,145,1)" stroke-width="2px" style="animation-duration: 1s;"></path></svg>