<svg width="150" height="150" viewBox="0 0 150 150" fill="none" xmlns="http://www.w3.org/2000/svg" style="width: 200px; height: 200px;"><style>
     .loading20-a {animation:loading20-pulse 1s infinite linear; opacity: .2;}
     .loading20-b {animation:loading20-pulse 1s 143ms infinite linear; opacity: .2;}
     .loading20-c {animation:loading20-pulse 1s 286ms infinite linear; opacity: .2;}
     .loading20-d {animation:loading20-pulse 1s 429ms infinite linear; opacity: .2;}
     .loading20-e {animation:loading20-pulse 1s 572ms infinite linear; opacity: .2;}
     .loading20-f {animation:loading20-pulse 1s 715ms infinite linear; opacity: .2;}
     .loading20-g {animation:loading20-pulse 1s 858ms infinite linear; opacity: .2;}
     .loading20-h {animation:loading20-pulse 1s 1s infinite linear; opacity: .2;}
     @keyframes loading20-pulse {
         0%{opacity: .2;}
         30%{opacity: 1;}
         50%{opacity: .2;}
         100%{opacity: .2;}
     }
     @media (prefers-reduced-motion: reduce) {
         .loading20-a, .loading20-b, .loading20-c, .loading20-d, .loading20-e, .loading20-f, .loading20-g, .loading20-h {
             animation: none;
         }
     }
    </style><path class="fillCls10" d="M49.2922 69.9121C49.2922 69.9121 57.5427 96.847 57.5427 97.2944C57.5427 97.7419 52.0305 110.484 22.9658 135.272L19.5117 129.33C19.5117 129.33 27.0284 118.771 28.8181 115.728C30.6078 112.686 35.8874 103.29 39.9142 101.858C43.9411 100.426 32.3975 72.3998 32.3975 72.3998L49.2922 69.9121Z" fill="#22245E" stroke-width="2px" style="animation-duration: 1s;"></path><path class="fillCls9" d="M12.8347 137.187L12.1367 138.458C12.0312 138.648 11.9851 138.866 12.0042 139.083C12.0234 139.3 12.1069 139.506 12.2441 139.675C13.5685 141.339 17.8637 145.832 20.1009 146.422C20.1009 146.422 24.3603 147.263 26.9733 146.637C27.1626 146.592 27.3311 146.485 27.4514 146.332C27.5717 146.179 27.6366 145.99 27.6355 145.796V144.937L20.1009 143.738L15.4476 140.48L13.9264 136.758L12.8347 137.187Z" fill="#17184D" stroke-width="2px" style="animation-duration: 1s;"></path><path class="fillCls3" d="M20.3687 129.867C20.3687 129.867 17.6305 133.536 16.0197 134.341C15.0414 134.853 14.2932 135.716 13.9258 136.758L19.5096 142.485L20.3687 139.406C20.3687 139.406 19.7781 137.778 22.8743 134.807C25.9704 131.836 20.3687 129.867 20.3687 129.867Z" fill="rgba(199,176,172,1)" stroke-width="2px" style="animation-duration: 1s;"></path><path class="fillCls9" d="M20.3711 139.407C20.3711 139.407 22.5545 142.753 22.6977 142.753L25.8476 143.022C26.3304 143.062 26.7811 143.28 27.112 143.634C27.4428 143.988 27.63 144.452 27.6373 144.937C27.6373 145.044 27.6194 145.134 27.6194 145.223C27.6194 145.313 23.8073 146.333 20.4069 145.313C20.4069 145.313 12.8902 139.854 12.5859 137.921C12.5859 137.921 13.3376 134.807 16.0222 134.342L17.096 135.648C17.615 136.078 17.615 137.384 17.3107 137.975C17.1895 138.226 17.1626 138.512 17.2349 138.782C17.3072 139.051 17.4738 139.286 17.7045 139.442V139.442C17.9316 139.591 18.2044 139.655 18.474 139.621L20.3711 139.407Z" fill="#17184D" stroke-width="2px" style="animation-duration: 1s;"></path><path class="fillCls9" d="M49.543 145.849L50.1157 147.299C50.1935 147.517 50.3407 147.703 50.5347 147.829C50.7287 147.955 50.9588 148.014 51.1895 147.997C52.0485 147.943 53.9993 147.496 56.0933 146.887C56.8504 146.669 57.6323 146.549 58.4199 146.529C60.1201 146.493 63.2699 146.35 65.2386 145.849C66.105 145.647 66.9595 145.396 67.7979 145.097C67.8948 145.056 67.9763 144.986 68.0309 144.896C68.0855 144.806 68.1104 144.701 68.1021 144.596L67.9768 143.737L56.9165 144.632L52.6212 144.507L49.543 145.849Z" fill="#17184D" stroke-width="2px" style="animation-duration: 1s;"></path><path class="fillCls3" d="M47.0898 137.259C47.0898 137.259 48.0026 139.299 48.6827 139.8C49.3628 140.301 48.9869 143.147 48.9869 143.147L54.5171 143.97L58.1681 141.769C58.1681 141.769 53.4254 141.823 52.101 134.968C51.403 131.299 47.0898 137.259 47.0898 137.259Z" fill="rgba(199,176,172,1)" stroke-width="2px" style="animation-duration: 1s;"></path><path class="fillCls8" d="M24.7909 70.3955C24.7909 70.3955 21.9095 82.7802 38.1778 106.279C38.1778 106.279 38.6431 116.588 47.4842 139.012L53.8019 136.901L53.3723 135.147L49.2918 101.984C49.2918 101.984 45.9272 89.0978 45.3545 78.9502V71.6841L24.7909 70.3955Z" fill="#292B68" stroke-width="2px" style="animation-duration: 1s;"></path><path class="fillCls6" d="M96.3585 28.4629H72.4123C72.2284 28.463 72.049 28.5197 71.8985 28.6254C71.748 28.7311 71.6337 28.8805 71.5712 29.0535L65.4504 46.4314C65.4049 46.5631 65.3915 46.7037 65.4111 46.8416C65.4308 46.9795 65.483 47.1107 65.5635 47.2244C65.6439 47.3381 65.7503 47.431 65.8738 47.4954C65.9973 47.5598 66.1344 47.5938 66.2737 47.5947L90.2735 49.1876L97.1817 29.6441C97.2308 29.5114 97.247 29.3689 97.2291 29.2286C97.2112 29.0883 97.1596 28.9544 97.0787 28.8384C96.9978 28.7224 96.8901 28.6276 96.7647 28.5622C96.6393 28.4968 96.4999 28.4628 96.3585 28.4629V28.4629Z" fill="#01579D" stroke-width="2px" style="animation-duration: 1s;"></path><path class="fillCls7" d="M65.6843 49.1877H90.2031C90.1985 48.9558 90.148 48.7271 90.0544 48.5149C89.9608 48.3027 89.826 48.1112 89.6579 47.9514C89.4898 47.7916 89.2917 47.6667 89.075 47.584C88.8583 47.5013 88.6274 47.4624 88.3956 47.4696H58.1497C57.1475 47.4696 56.3242 48.2392 56.3242 49.1877H65.6843Z" fill="rgba(148,148,148,1)" stroke-width="2px" style="animation-duration: 1s;"></path><path class="fillCls2" d="M52.9777 12.1053C52.9777 12.1053 54.141 20.0694 51.9933 23.6488C51.9933 23.6488 50.0247 25.7965 49.8457 26.0649C49.6667 26.3334 46.0873 24.9911 46.0873 24.9911C46.0873 24.9911 46.3558 30.0022 46.9822 30.8971C46.9822 30.8971 44.2082 32.5973 37.6758 26.7808C37.6758 26.7808 42.0605 24.3289 41.971 21.6265C41.8816 18.924 41.6131 16.9375 41.6131 16.9375C41.6131 16.9375 38.5706 17.2059 38.9286 14.6109C39.2865 12.0158 41.6131 13.1791 41.6131 13.1791L44.4766 9.86816L52.9777 12.1053Z" fill="rgba(222,202,199,1)" stroke-width="2px" style="animation-duration: 1s;"></path><path class="fillCls4" d="M49.6473 48.06L49.5399 44.6954L52.3139 44.409C52.2602 41.9393 50.7211 37.4113 49.7367 34.7268C49.2631 33.4851 48.3173 32.4813 47.1059 31.9349L46.4258 28.3734V30.8432C45.6741 31.2727 42.3811 29.5367 40.2871 28.3018C39.1596 27.6396 39.1775 27.1027 39.1775 25.7783L37.6742 26.7806L32.6094 29.0356C30.7734 29.8543 28.8611 30.4898 26.9002 30.9326C25.0568 31.3264 22.5155 32.4002 21.9786 35.3532C21.1553 40.0601 23.8935 46.8609 23.8935 46.8609C26.8107 56.4 23.8935 69.948 23.8935 69.948C28.6004 74.6012 51.7591 71.505 51.0969 69.948C50.4347 68.391 49.6473 48.06 49.6473 48.06Z" fill="rgba(150,177,170,1)" stroke-width="2px" style="animation-duration: 1s;"></path><path class="fillCls3" d="M71.2341 49.1883L54.4109 53.2688L52.317 44.4635L52.1559 44.4277L49.543 44.6962L49.6504 48.0608C49.6504 48.0608 49.9367 55.1659 50.2946 61.3046L67.0462 53.1972C68.5182 52.4737 70.0943 51.9846 71.7173 51.7476L75.7978 51.1212L80.272 49.1883H71.2341Z" fill="rgba(199,176,172,1)" stroke-width="2px" style="animation-duration: 1s;"></path><path class="fillCls5" d="M95.6625 29.627H72.9334L67.3496 45.43C67.3101 45.5474 67.299 45.6724 67.3169 45.7949C67.3349 45.9175 67.3815 46.034 67.453 46.1352C67.5245 46.2363 67.6189 46.3191 67.7284 46.377C67.8379 46.4348 67.9595 46.466 68.0833 46.468L89.5597 46.8438L93.4791 35.7835L95.6625 29.627Z" fill="rgba(202,202,202,0)" stroke-width="2px" style="animation-duration: 1s;"></path><path class="fillCls2" d="M27.2422 49.9042C27.2422 49.9042 31.7701 46.2711 35.3495 46.4501C35.3495 46.4501 39.0542 54.6827 39.6985 57.063C39.6985 57.063 52.5485 52.2666 57.7565 51.0675C59.1324 50.7501 60.4618 50.2569 61.7117 49.6V49.6L62.356 47.5597C62.4246 47.3307 62.5439 47.1201 62.705 46.9435C62.8661 46.767 63.0649 46.6289 63.2866 46.5396C64.0802 46.1731 64.9607 46.0367 65.828 46.1458C67.6893 46.3785 68.6378 45.3047 68.6378 45.3047C68.6378 45.3047 69.479 46.1995 68.6378 46.8617C67.7967 47.5239 65.5953 47.8818 65.5953 47.8818V48.1324C65.5869 48.3227 65.6276 48.512 65.7135 48.682C65.7995 48.852 65.9277 48.9971 66.086 49.1031C66.2442 49.2092 66.427 49.2728 66.617 49.2877C66.8069 49.3026 66.9974 49.2684 67.1703 49.1883H75.7608L72.772 50.3158L64.2352 52.6424C62.2163 53.6411 60.2617 54.7648 58.3829 56.0071C53.0317 59.5865 41.2734 67.1748 38.4636 66.8526H38.213C38.213 66.8526 30.75 63.3269 27.2422 49.9042Z" fill="rgba(222,202,199,1)" stroke-width="2px" style="animation-duration: 1s;"></path><path class="fillCls9" d="M49.038 142.378C48.9485 143.237 48.7338 145.062 49.8613 146.691C51.3115 146.713 52.7558 146.502 54.1387 146.065C56.3042 145.331 56.8769 145.08 58.7024 145.313C60.5279 145.546 65.8612 145.385 67.973 143.738C67.973 143.738 67.5077 141.483 64.8768 141.948C63.5882 142.181 58.8814 141.823 57.5391 141.304C56.9664 141.089 56.34 141.25 55.8031 141.537C55.2437 141.842 54.6259 142.026 53.9904 142.075C53.3549 142.124 52.7162 142.039 52.1163 141.823C50.6309 141.286 48.9664 140.874 49.0201 141.734C49.0439 141.947 49.0499 142.163 49.038 142.378Z" fill="#17184D" stroke-width="2px" style="animation-duration: 1s;"></path><path class="fillCls1" d="M54.676 7.89969C54.676 7.89969 56.0361 7.36279 56.6088 8.25763C56.6088 8.25763 56.0182 7.00485 54.676 7.00485C54.676 7.00485 57.0026 4.76773 53.2979 3.51494C49.5932 2.26215 43.043 3.24649 42.7745 7.00485C42.7745 7.00485 38.8014 6.28897 38.6224 9.86836C38.5329 11.6044 38.4255 13.7878 38.4792 15.6133C38.5329 17.4388 40.0542 18.7452 41.7365 19.0495L41.7723 19.8012C41.8753 21.4534 42.6281 22.9976 43.8662 24.0964C44.5683 24.7391 45.3293 25.3144 46.1391 25.8145C47.9825 26.8705 49.8975 27.3537 51.3292 26.4051C51.3292 26.4051 52.9579 23.3448 53.0295 20.4991C53.0295 20.4991 49.9333 21.2866 47.4098 20.4991C45.7633 19.998 44.2957 18.101 44.2957 16.0249C44.2895 15.5526 44.3135 15.0803 44.3673 14.611L45.0653 12.4813C46.336 12.6603 52.2599 13.412 52.9758 12.1055C52.9758 12.1055 56.1972 12.4634 56.5552 10.5842C56.5552 10.5842 57.0921 7.63124 54.676 7.89969Z" fill="#3F62A3" stroke-width="2px" style="animation-duration: 1s;"></path><path class="fillCls2" d="M39.8061 15.1481C39.7704 16.0788 40.3967 16.8662 41.1842 16.8841C41.9717 16.902 42.0254 16.043 42.0612 15.0944C42.097 14.1459 42.0791 13.5016 41.2916 13.4837C40.5041 13.4658 39.824 14.1996 39.8061 15.1481Z" fill="rgba(222,202,199,1)" stroke-width="2px" style="animation-duration: 1s;"></path><path class="loading20-h fillCls11" d="M107 13.1959L110.549 10L116 15.8041L112.451 19L107 13.1959Z" fill="#000000" stroke-width="2px" style="animation-duration: 1s;"></path><path class="loading20-g fillCls11" d="M111 22.032L110.697 26L103 25.968L103.336 22L111 22.032Z" fill="#000000" stroke-width="2px" style="animation-duration: 1s;"></path><path class="loading20-f fillCls11" d="M115 32.2326L108.907 38L106 34.7674L112.093 29L115 32.2326Z" fill="#000000" stroke-width="2px" style="animation-duration: 1s;"></path><path class="loading20-e fillCls11" d="M121.375 41H117L117.59 33H122L121.375 41Z" fill="#000000" stroke-width="2px" style="animation-duration: 1s;"></path><path class="loading20-d fillCls11" d="M134 34.8041L130.451 38L125 32.1959L128.549 29L134 34.8041Z" fill="#000000" stroke-width="2px" style="animation-duration: 1s;"></path><path class="loading20-c fillCls11" d="M130.336 22H138L137.697 26H130L130.336 22Z" fill="#000000" stroke-width="2px" style="animation-duration: 1s;"></path><path class="loading20-b fillCls11" d="M135 13.8735L128.918 19L126 16.1592L132.082 11L135 13.8735Z" fill="#000000" stroke-width="2px" style="animation-duration: 1s;"></path><path class="loading20-a fillCls11" d="M123.41 15H119L119.59 7L124 7.03588L123.41 15Z" fill="#000000" stroke-width="2px" style="animation-duration: 1s;"></path></svg>