<svg width="150" height="150" viewBox="0 0 150 150" fill="none" xmlns="http://www.w3.org/2000/svg" style="width: 200px; height: 200px;"><style>
     .support1-c {animation: support1-c 2s infinite; transform-origin: 25px 56px;}
     @keyframes support1-c{
         0% {transform:rotate(0deg);}
         20%{transform:rotate(40deg);}
         30%{transform:rotate(40deg);}
         60%{transform:rotate(-40deg);}
         70%{transform:rotate(-40deg);}
         90%{transform:rotate(0deg);}
         100%{transform:rotate(0deg);}
     }

     .support1-b {animation:support1-b 2s infinite;}
     @keyframes support1-b {
         0%{transform: translate3d(0, -5px, 0);}
         50%{transform: translate3d(0, 5px, 0);}
         100%{transform: translate3d(0, -5px, 0);}
     }

     .support1-a {animation:support1-a 2s infinite linear; transform-origin: 124.2px 38px;}
     @keyframes support1-a {
         100%{transform:rotate(360deg);}
     }
     
     @media (prefers-reduced-motion: reduce) {
         .support1-a, .support1-b, .support1-c {
             animation: none;
         }
     }
     
    </style><path class="fillCls4" d="M135.67 25.6138H95.3281V50.1463H135.67V25.6138Z" fill="rgba(154,204,205,1)" stroke-width="2px" style="animation-duration: 2s;"></path><path class="fillCls5" d="M124.366 45.5052C128.581 45.5052 131.997 42.0885 131.997 37.8737C131.997 33.6589 128.581 30.2422 124.366 30.2422C120.151 30.2422 116.734 33.6589 116.734 37.8737C116.734 42.0885 120.151 45.5052 124.366 45.5052Z" fill="#FFFFFF" stroke-width="2px" style="animation-duration: 2s;"></path><g class="support1-a" style="animation-duration: 2s;"><path class="fillCls12" d="M124.361 37.8735L118.988 39.0524C119.212 40.0947 119.733 41.0378 120.49 41.7824C121.247 42.5269 122.202 43.0357 123.245 43.259L124.361 37.8735Z" fill="#296C90" stroke-width="2px"></path><path class="fillCls12" d="M124.364 37.8738L122.751 43.1228C123.272 43.2841 123.818 43.3586 124.364 43.3586C127.38 43.3586 129.862 40.8768 129.862 37.8614C129.862 34.846 127.38 32.3643 124.364 32.3643C121.349 32.3643 118.867 34.846 118.867 37.8614C118.867 38.6308 119.028 39.3877 119.339 40.095L124.364 37.8738Z" fill="#296C90" stroke-width="2px"></path><path class="fillCls9" d="M124.363 37.874L128.272 41.7332C129.29 40.7032 129.86 39.3134 129.86 37.874C129.86 35.4667 128.285 33.3323 125.976 32.625L124.363 37.874Z" fill="rgba(181,181,181,1)" stroke-width="2px"></path><path class="fillCls13" d="M124.365 37.8736L127.876 33.6422C126.896 32.8232 125.655 32.3765 124.365 32.3765C122.876 32.3765 121.436 32.9845 120.406 34.0641L124.365 37.8736Z" fill="#4CD9AC" stroke-width="2px"></path></g><path class="fillCls5" d="M124.363 41.1622C126.179 41.1622 127.651 39.6899 127.651 37.8738C127.651 36.0577 126.179 34.5854 124.363 34.5854C122.546 34.5854 121.074 36.0577 121.074 37.8738C121.074 39.6899 122.546 41.1622 124.363 41.1622Z" fill="#FFFFFF" stroke-width="2px" style="animation-duration: 2s;"></path><path class="fillCls16" d="M25.0147 75.6032C35.6252 75.6032 44.2267 67.0017 44.2267 56.3912C44.2267 45.7807 35.6252 37.1792 25.0147 37.1792C14.4042 37.1792 5.80273 45.7807 5.80273 56.3912C5.80273 67.0017 14.4042 75.6032 25.0147 75.6032Z" fill="rgba(103,153,154,1)" stroke-width="2px" style="animation-duration: 2s;"></path><g class="support1-c" style="animation-duration: 2s;"><path class="fillCls15" d="M25.0173 41.5625L21.9023 56.3912H25.0173H28.1136L25.0173 41.5625Z" fill="#092A3C" stroke-width="2px"></path><path class="fillCls14" d="M25.0173 71.2198L28.1136 56.3911H25.0173H21.9023L25.0173 71.2198Z" fill="rgba(49,49,49,1)" stroke-width="2px"></path><path class="fillCls5" d="M25.0107 57.8646C25.8245 57.8646 26.4842 57.2048 26.4842 56.391C26.4842 55.5772 25.8245 54.9175 25.0107 54.9175C24.1968 54.9175 23.5371 55.5772 23.5371 56.391C23.5371 57.2048 24.1968 57.8646 25.0107 57.8646Z" fill="#FFFFFF" stroke-width="2px" style="animation-duration: 2s;"></path></g><path class="fillCls5" d="M97.8945 34.9181V33.2949H113.756V34.9181H97.8945Z" fill="#FFFFFF" stroke-width="2px" style="animation-duration: 2s;"></path><path class="fillCls5" d="M97.8945 38.6916V37.0684H113.756V38.6916H97.8945Z" fill="#FFFFFF" stroke-width="2px" style="animation-duration: 2s;"></path><path class="fillCls5" d="M97.8945 42.465V40.8418H109.97V42.465H97.8945Z" fill="#FFFFFF" stroke-width="2px" style="animation-duration: 2s;"></path><g class="support1-b" style="animation-duration: 2s;"><path class="fillCls9" d="M76.9028 37.573L50.5586 35.4883V76.959C50.5586 84.181 54.4178 90.8694 60.6843 94.4804C63.5632 96.1432 66.2807 98.0294 68.837 100.151L76.9028 106.815L84.9562 100.151C87.5125 98.0418 90.23 96.1432 93.0965 94.4804C99.3506 90.857 103.21 84.181 103.21 76.959V35.4883L76.9028 37.573Z" fill="rgba(181,181,181,1)" stroke-width="2px"></path><path class="fillCls10" d="M76.8759 82.5434C87.0668 82.5434 95.3281 74.2821 95.3281 64.0913C95.3281 53.9005 87.0668 45.6392 76.8759 45.6392C66.6851 45.6392 58.4238 53.9005 58.4238 64.0913C58.4238 74.2821 66.6851 82.5434 76.8759 82.5434Z" fill="#E7F6FD" stroke-width="2px"></path><path class="fillCls11" d="M71.9306 68.4304L66.9248 63.4236L64.002 66.3775L71.9306 74.3062L89.7511 56.7925L86.8346 53.876L71.9306 68.4304Z" fill="#6DC0D2" stroke-width="2px"></path></g><path class="fillCls2" d="M112.538 74.8C112.29 73.6459 112.526 72.3802 112.972 71.2634C113.767 69.3028 115.045 67.6152 115.876 65.6794C116.757 63.6319 117.651 61.5472 119.115 59.872C119.301 59.6611 119.5 59.4501 119.76 59.3384C120.021 59.2267 120.343 59.2267 120.554 59.4129C120.703 59.5494 120.778 59.7603 120.815 59.9713C121.237 61.8947 120.579 63.9546 120.132 65.8283C119.648 67.8261 119.115 69.824 118.519 71.797C118.048 73.3854 117.452 74.8 116.1 75.8299C115.02 76.6613 113.506 77.1453 112.799 75.5942C112.687 75.346 112.6 75.073 112.538 74.8Z" fill="#113246" stroke-width="2px" style="animation-duration: 2s;"></path><path class="fillCls3" d="M114.378 79.9497C114.316 79.5402 113.72 75.7306 113.758 75.4328C113.782 75.1598 117.555 66.7341 118.647 63.9669C118.796 63.5823 119.131 63.3589 119.466 63.3961C119.95 63.4458 120.272 64.0042 120.136 64.575L117.927 73.8196C117.852 74.1423 117.828 74.4773 117.865 74.8124L118.461 80.384L114.378 79.9497Z" fill="#FAAA4A" stroke-width="2px" style="animation-duration: 2s;"></path><path class="fillCls2" d="M121.234 67.1433C121.247 65.7783 121.818 64.4878 122.55 63.3338C123.282 62.1921 124.188 61.1622 124.97 60.0454C126.335 58.0972 127.34 55.8512 129.064 54.2132C129.437 53.8657 129.846 53.5431 130.343 53.4562C130.839 53.3694 131.422 53.6051 131.584 54.0767C131.683 54.3497 131.621 54.6599 131.559 54.9453C130.343 60.3804 127.91 65.5301 124.51 69.9353C122.848 72.0945 121.222 68.7192 121.234 67.1433Z" fill="#113246" stroke-width="2px" style="animation-duration: 2s;"></path><path class="fillCls3" d="M124.564 76.5621L122.578 69.7745L128.1 59.0407C128.261 58.7181 128.596 58.5195 128.956 58.5195C129.577 58.5195 130.036 59.1028 129.887 59.7108L128.026 67.1562C127.653 68.6452 127.678 70.2088 128.088 71.6854L129.44 76.5373H124.564V76.5621Z" fill="#FAAA4A" stroke-width="2px" style="animation-duration: 2s;"></path><path class="fillCls8" d="M113.309 78.0137H118.893L126.462 92.7307L136.762 112.076L125.035 110.848C125.035 110.848 117.031 103.266 113.309 78.0137Z" fill="rgba(56,61,105,1)" stroke-width="2px" style="animation-duration: 2s;"></path><path class="fillCls7" d="M87.8817 105.04C92.0263 101.814 97.3498 100.114 102.599 100.337C107.848 100.561 112.997 102.707 116.857 106.281C117.502 106.889 118.259 107.572 119.14 107.497H130.444C127.355 102.807 125.692 97.3964 124.761 91.862C123.83 86.3276 123.669 80.694 123.52 75.0851L129.477 74.9858C131.09 77.7779 132.343 80.7188 133.485 83.7342C135.644 89.4547 138.622 94.8154 141.203 100.35C143.486 105.264 145.459 110.314 147.271 115.414C147.929 117.263 147.122 119.298 145.397 120.216C143.97 120.973 142.618 121.594 140.669 122.115C139.453 122.438 127.739 123.095 127.727 123.021C127.714 122.946 88.7504 122.872 88.7504 122.872C89.0234 119.509 88.7876 115.861 88.2788 112.523C87.9562 110.413 87.4722 108.304 87.5591 106.17C87.5715 105.748 87.8197 105.475 87.8817 105.04Z" fill="rgba(92,110,185,1)" stroke-width="2px" style="animation-duration: 2s;"></path><path class="fillCls6" d="M72.8164 91.6636L83.3144 102.608C83.9845 103.303 84.9027 103.7 85.8706 103.7H89.6553V122.822H85.1013L73.1018 94.8403L72.8164 91.6636Z" fill="rgba(103,153,154,1)" stroke-width="2px" style="animation-duration: 2s;"></path><path class="fillCls2" d="M41.3373 78.7836C41.2752 83.2508 41.2132 87.718 41.1511 92.1853C41.1263 93.7364 41.1635 95.4612 42.2307 96.5904C42.33 96.6897 42.4417 96.789 42.5782 96.7766C42.7271 96.7642 42.8263 96.6277 42.9008 96.516C43.7074 95.3743 44.7125 94.394 45.8665 93.6123C46.9833 92.8677 48.2366 92.3093 49.2914 91.4903C50.3586 90.6714 51.252 89.4677 51.2396 88.1151C51.2396 87.4823 51.0287 86.8618 50.8053 86.2538C49.3659 82.3325 47.2315 78.6595 44.5264 75.4828C42.2679 72.8273 41.3621 76.9967 41.3373 78.7836Z" fill="#113246" stroke-width="2px" style="animation-duration: 2s;"></path><path class="fillCls3" d="M61.4536 87.2834C61.4288 87.0725 61.3916 86.8615 61.2675 86.6878C61.1061 86.4644 61.6273 85.8936 61.3791 85.7819C58.5623 84.4666 55.7579 82.0841 55.3112 79.0191C55.4104 78.6592 55.4973 78.2869 55.5718 77.9022C55.944 75.8175 56.0929 72.8766 55.336 70.854C54.79 69.3649 52.9907 67.9751 51.5513 67.4167C49.4169 66.5729 46.9227 66.8211 44.8876 67.8882C43.2993 68.7196 42.1701 69.8612 42.4927 71.6978C42.9146 74.0182 43.3738 76.3511 44.2672 78.5599C44.5774 79.3293 44.9497 80.0862 45.3716 80.8059C46.3271 82.4191 47.568 83.8337 49.1315 84.8264C49.3425 84.9629 49.5534 85.087 49.8016 85.1119C49.9009 85.1243 50.0001 85.1243 50.0994 85.0994C50.0994 85.1243 50.0994 85.1367 50.0994 85.1615C50.2607 86.5761 50.4344 87.2958 50.5585 88.8842C50.6082 89.5294 50.695 90.3857 50.7199 91.0185C50.8067 93.1156 50.7447 95.2251 50.5585 97.3099C51.4272 97.7566 52.4695 97.7442 53.4126 97.4588C54.3433 97.1858 55.1871 96.6522 55.9937 96.1062C57.4951 95.0762 58.9346 93.8974 59.9769 92.4083C61.0193 90.9316 61.6645 89.0951 61.4536 87.2834Z" fill="#FAAA4A" stroke-width="2px" style="animation-duration: 2s;"></path><path class="fillCls2" d="M46.9836 79.2021C46.9461 78.4908 46.793 77.3882 46.793 77.3882L47.3335 77.3008C47.3335 77.3008 47.4379 78.1622 47.4767 78.7166C47.5174 79.2998 47.5324 80.2125 47.5324 80.2125L48.0654 79.8783L48.3597 80.3079C48.3597 80.3079 47.993 80.5743 47.7392 80.7137C47.4564 80.8689 46.9836 81.0477 46.9836 81.0477C46.9836 81.0477 47.0216 79.9219 46.9836 79.2021Z" fill="#113246" stroke-width="2px" style="animation-duration: 2s;"></path><path class="fillCls2" d="M67.4452 73.7823C67.3707 73.4845 67.2839 73.1867 67.197 72.8889C66.316 69.9728 64.7897 67.6027 62.4071 65.6669C59.9129 63.6442 56.8107 62.3785 53.6092 62.0931C52.3683 61.9814 51.0902 62.031 49.8741 62.3537C48.7325 62.6639 47.8887 63.8055 46.8463 64.1654C46.3748 64.3267 45.4069 64.2398 44.8981 64.2523C41.4856 64.3515 39.5498 67.2428 38.4455 70.4815C37.3411 73.7203 37.217 77.2196 36.125 80.4583C34.4746 85.3351 30.4665 89.4052 25.5401 90.9067C23.3934 91.5519 21.1101 91.7381 19.0627 92.6315C15.6874 94.1082 13.2677 97.5703 13.0443 101.256C12.821 104.941 14.8188 108.664 18.0079 110.525C21.6685 112.66 26.2723 112.287 30.392 111.282C34.0155 110.414 37.5148 109.123 41.0017 107.783C40.89 107.746 40.8156 107.659 40.8404 107.51C41.2995 103.676 42.0192 99.2579 44.3645 96.0316C43.9674 95.1381 43.6944 94.1827 43.5331 93.2396C43.0864 90.5344 43.3222 87.7176 43.4463 85C43.5579 82.3445 42.8382 79.7883 43.3842 77.1079C43.7193 75.4575 44.2901 73.894 44.5134 72.2188C45.7419 72.7896 47.0324 73.2487 48.385 73.3977C49.7376 73.5466 51.1398 73.3728 52.3311 72.74C53.1873 74.0181 54.1428 74.986 55.6567 75.2466C55.6567 75.2838 55.6691 75.321 55.6691 75.3583C55.5946 75.4575 55.545 75.5568 55.5078 75.6437C55.061 76.8473 55.0734 78.3612 55.2472 79.6145C55.3092 80.4956 55.4954 81.7241 55.8552 82.7664C56.2895 84.0073 57.1706 85.1738 58.2501 85.9183C59.3297 86.6628 60.6699 87.0599 61.9728 86.8738C63.1641 86.7 64.2437 86.0548 65.0751 85.1862C65.8941 84.3175 66.4773 83.238 66.8868 82.1087C66.9612 81.8854 67.2218 81.3518 67.2839 80.9919C68.1277 78.7087 68.0408 76.1524 67.4452 73.7823ZM59.9998 86.2533C59.6399 86.1665 59.2801 86.03 58.945 85.8686C58.5976 85.7197 58.1136 85.4964 57.8282 85.2358C57.1581 84.6402 56.6742 83.9329 56.3268 83.1883C56.426 83.362 56.5377 83.5358 56.6494 83.7095C57.0341 84.2431 57.4932 84.727 58.0268 85.1241C59.2925 86.0548 61.0173 86.4022 62.494 85.8935C61.0173 86.0051 60.4713 85.9927 59.6275 85.7197C58.945 85.4964 57.4436 84.3299 56.91 83.3124C56.91 83.3124 56.91 83.3124 56.91 83.3C58.002 84.8263 59.5779 85.9183 61.3896 85.7942C62.4816 85.7073 63.5239 85.3102 64.4298 84.6898C63.7969 86.0051 61.2407 86.5511 59.9998 86.2533Z" fill="#113246" stroke-width="2px" style="animation-duration: 2s;"></path><path class="fillCls2" d="M48.6719 76.4414L48.9112 75.9718C48.9112 75.9718 49.1799 76.0837 49.4901 76.0278C49.8004 75.9718 49.9675 75.6777 49.9675 75.6777L50.413 75.9718C50.413 75.9718 50.0231 76.3858 49.6492 76.5051C49.2753 76.6244 48.6719 76.4414 48.6719 76.4414Z" fill="#113246" stroke-width="2px" style="animation-duration: 2s;"></path><path class="fillCls1" d="M56.0044 70.5686C55.7438 68.7445 55.0861 66.6101 53.5846 65.0218C52.2693 63.632 50.3955 63.1232 48.1991 63.0984C47.4049 63.086 46.6852 63.5699 46.375 64.2896L47.1195 64.24C49.44 64.1035 51.2393 64.7115 52.505 66.0269C53.7087 67.2926 54.2547 69.0423 54.5029 70.5934C52.8525 70.9905 51.6116 72.4671 51.6116 74.2416C51.6116 75.9541 52.7656 77.3935 54.3291 77.8526L51.1524 81.3892C50.9787 81.2651 50.7678 81.203 50.5444 81.203C49.9612 81.203 49.4772 81.6746 49.4772 82.2702C49.4772 82.8534 49.9488 83.3374 50.5444 83.3374C51.14 83.3374 51.6116 82.8658 51.6116 82.2702C51.6116 81.9972 51.5123 81.749 51.3386 81.5629L54.6021 77.9271C54.8503 77.9767 55.0985 78.0015 55.3591 78.0015C57.4314 78.0015 59.1066 76.3263 59.1066 74.254C59.119 72.4175 57.7788 70.8788 56.0044 70.5686Z" fill="rgba(80,80,80,1)" stroke-width="2px" style="animation-duration: 2s;"></path><path class="fillCls5" d="M50.1855 92.5324L59.7777 91.2915L51.96 101.628L50.1855 92.5324Z" fill="#FFFFFF" stroke-width="2px" style="animation-duration: 2s;"></path><path class="fillCls2" d="M44.1913 76.6858C43.6205 78.4851 42.5161 80.1479 40.9277 81.1778C41.8956 80.0362 42.8015 78.8201 43.4219 77.4551C44.0424 76.0901 44.4022 74.5762 44.2409 73.0872C44.1789 72.4791 44.0052 71.6105 44.5015 71.1514C44.9606 71.5733 44.7249 73.2237 44.6876 73.8317C44.6504 74.7872 44.4891 75.7551 44.1913 76.6858Z" fill="#113246" stroke-width="2px" style="animation-duration: 2s;"></path><path class="fillCls4" d="M83.0682 109.57C81.4923 105.574 79.3703 101.802 77.236 98.0668C76.1068 96.0814 74.9652 94.096 73.7243 92.185C73.0542 91.1551 72.3593 90.1251 71.4162 89.3309C69.8527 88.0032 67.7928 87.4448 65.8074 86.936C64.3059 86.5389 62.9409 86.0922 61.4394 85.7075C58.9576 90.5966 55.9919 95.2252 52.5918 99.5187C51.9093 95.9821 51.2517 92.4332 50.5692 88.8842C48.9188 89.8149 47.4049 90.6835 45.7545 91.6142C45.2457 91.8996 44.737 92.185 44.3399 92.6069C43.9924 92.9792 43.7691 93.4259 43.5333 93.8726C40.1084 100.573 37.0558 107.46 34.0156 114.335C35.2193 115.278 36.212 116.482 36.9193 117.822C40.3442 114.087 43.5085 110.104 46.3625 105.922C46.71 105.401 47.0698 104.817 47.0947 104.209C47.3056 107.014 47.6779 110.017 48.3231 112.734C48.4224 113.156 48.5341 113.59 48.7823 113.95C49.6757 115.266 52.3064 115.787 53.7583 116.097C55.7189 116.519 57.754 116.444 59.727 116.817C62.1715 117.276 63.611 118.715 63.611 118.715C61.7993 118.889 59.2554 119.361 57.6919 119.845C57.1831 120.006 56.0291 121.458 54.9247 122.773C60.6204 122.81 85.5748 122.773 85.5748 122.773C85.6865 118.504 84.6442 113.566 83.0682 109.57Z" fill="rgba(154,204,205,1)" stroke-width="2px" style="animation-duration: 2s;"></path><path class="fillCls2" d="M60.8577 80.2972C59.4058 80.3965 58.0284 80.6571 56.7255 81.3147C56.3532 81.5009 55.981 81.7118 55.6211 81.9352C55.6955 82.2206 55.77 82.4936 55.8693 82.7666C56.3036 84.0075 57.1846 85.1739 58.2642 85.9185C59.3438 86.663 60.6839 87.0601 61.9869 86.874C63.1781 86.7002 64.2577 86.055 65.0891 85.1863C65.9081 84.3177 66.4913 83.2381 66.9008 82.1089C66.9753 81.8856 67.2359 81.352 67.2979 80.9921C67.3476 80.868 67.3848 80.7439 67.4344 80.6198C65.238 80.2972 63.0416 80.1483 60.8577 80.2972ZM60.0015 86.2535C59.6416 86.1666 59.2817 86.0301 58.9467 85.8688C58.5992 85.7199 58.1153 85.4966 57.8299 85.236C57.1598 84.6403 56.6759 83.933 56.3284 83.1885C56.4277 83.3622 56.5394 83.5359 56.651 83.7097C57.0357 84.2433 57.4948 84.7272 58.0284 85.1243C59.2941 86.055 61.019 86.4024 62.4957 85.8936C61.019 86.0053 60.473 85.9929 59.6292 85.7199C58.9467 85.4966 57.4452 84.3301 56.9116 83.3126C56.9116 83.3126 56.9116 83.3126 56.9116 83.3002C58.0036 84.8265 59.5795 85.9185 61.3913 85.7944C62.4832 85.7075 63.5256 85.3104 64.4314 84.69C63.7986 86.0053 61.2423 86.5513 60.0015 86.2535Z" fill="#113246" stroke-width="2px" style="animation-duration: 2s;"></path><path class="fillCls3" d="M60.3458 120.502C60.3458 120.031 59.9611 119.658 59.502 119.658H54.8859L53.2603 117.958C53.1734 117.859 53.0369 117.822 52.9128 117.834L49.5252 118.629C48.9668 118.74 47.5646 119.907 44.7601 120.515L44.2266 120.949H60.3458V120.502V120.502Z" fill="#FAAA4A" stroke-width="2px" style="animation-duration: 2s;"></path><path class="fillCls2" d="M69.4774 116.871C67.136 117.269 63.6035 118.446 63.6035 118.446L63.7683 118.917C63.7683 118.917 67.3387 117.768 69.7022 117.403C72.3584 116.993 76.5774 117.096 76.5774 117.096L68.1881 98.4351L67.697 98.6394L75.6566 116.421C75.6566 116.421 71.8628 116.466 69.4774 116.871Z" fill="#113246" stroke-width="2px" style="animation-duration: 2s;"></path><path class="fillCls1" d="M2.53358 101.554L15.2652 124.386H65.4966C65.2484 122.24 63.4367 120.627 61.29 120.627H45.4437L33.618 100.958C33.4815 100.263 32.8735 99.7671 32.1662 99.7671H3.98543C3.04235 99.7671 2.33503 100.636 2.53358 101.554Z" fill="rgba(80,80,80,1)" stroke-width="2px" style="animation-duration: 2s;"></path></svg>