<svg width="150" height="150" viewBox="0 0 150 150" fill="none" xmlns="http://www.w3.org/2000/svg" style="width: 200px; height: 200px;"><style>
     .orbit2-planet {animation:orbit2-planet 3s infinite;}

     .orbit2-orange-moon {animation:orbit2-moon 3s 1s infinite;}
     .orbit2-purple-moon {animation:orbit2-moon 3s 2s infinite;}
     .orbit2-green-moon {animation:orbit2-moon 3s .5s infinite;}
     
     @keyframes orbit2-planet {
         0%{transform: translate3d(0, -5px, 0);}
         50%{transform: translate3d(0, 5px, 0);}
         100%{transform: translate3d(0, -5px, 0);}
     }

     @keyframes orbit2-moon {
         0%{transform: translate3d(0, 0, 0);}
         50%{transform: translate3d(0, 10px, 0);}
         100%{transform: translate3d(0, 0, 0);}
     }

     @media (prefers-reduced-motion: reduce) {
         .orbit2-planet, .orbit2-orange-moon, .orbit2-purple-moon, .orbit2-green-moon {
             animation: none;
         }
     }
    </style><g class="orbit2-planet" style="animation-duration: 3s;"><circle class="fillCls1" cx="78.6099" cy="87.5413" r="33.6177" fill="#96C4EC" stroke-width="2px"></circle><path class="fillCls2" d="M75.7103 80.5858C85.5925 74.0492 98.3153 60.2993 98.3153 60.2993C98.3153 60.2993 99.7755 61.3004 100.634 62.0382C101.605 62.8729 102.952 64.3566 102.952 64.3566C102.952 64.3566 89.4951 78.8639 78.8982 85.5126C67.4421 92.7003 46.8165 98.5539 46.8165 98.5539C46.8165 98.5539 46.3659 97.1484 46.1209 96.2354C45.8798 95.3366 45.5703 93.917 45.5703 93.917C45.5703 93.917 64.8766 87.7519 75.7103 80.5858Z" fill="#4F9BE3" stroke-width="2px"></path><path class="fillCls2" d="M66.4386 64.6464C60.2126 69.2634 48.54 72.4713 48.54 72.4713C48.54 72.4713 47.9401 73.6955 47.6011 74.4999C46.9047 76.1522 46.123 78.847 46.123 78.847C46.123 78.847 61.3048 74.0352 69.6264 68.4139C76.3325 63.8839 84.9862 54.5032 84.9862 54.5032C84.9862 54.5032 82.5258 54.0322 80.9289 53.9236C79.461 53.8236 77.1614 53.9236 77.1614 53.9236C77.1614 53.9236 71.2024 61.1138 66.4386 64.6464Z" fill="#4F9BE3" stroke-width="2px"></path><path class="fillCls2" d="M92.521 111.015C98.7469 106.399 108.681 102.611 108.681 102.611C108.681 102.611 109.281 101.387 109.62 100.582C110.316 98.93 111.098 96.2352 111.098 96.2352C111.098 96.2352 97.6547 101.627 89.3331 107.248C82.627 111.778 72.2345 120.579 72.2345 120.579C72.2345 120.579 74.6949 121.05 76.2918 121.159C77.7597 121.259 80.0593 121.159 80.0593 121.159C80.0593 121.159 87.7572 114.548 92.521 111.015Z" fill="#4F9BE3" stroke-width="2px"></path><path class="fillCls3" d="M111.653 69.2831C110.779 67.9754 105.852 67.8341 105.852 67.8341L104.693 66.385L103.534 64.936C103.534 64.936 112.704 63.3789 117.449 65.8054C130.486 72.471 104.161 91.1298 88.7584 99.7129C71.0754 109.566 45.5279 119.13 41.2299 111.885C38.4094 107.13 47.0498 99.1333 47.0498 99.1333C47.0498 99.1333 47.3914 100.016 47.6292 100.582C47.8669 101.148 48.2675 102.031 48.2675 102.031C48.2675 102.031 46.2149 103.924 46.7363 105.799C48.2675 111.305 70.7487 100.382 83.8316 92.7575C96.114 85.5998 115.14 74.4996 111.653 69.2831Z" fill="#5C6EB9" stroke-width="2px"></path></g><g class="orbit2-orange-moon" style="animation-duration: 3s;"><circle class="fillCls8" cx="106.143" cy="35.086" r="6.08596" fill="#F6B511" stroke-width="2px"></circle><path class="fillCls9" d="M102.956 35.6656C102.755 34.4632 100.117 34.2166 100.117 34.2166C100.117 34.2166 99.9774 35.6583 100.204 36.535C100.393 37.2701 100.957 38.2739 100.957 38.2739C100.957 38.2739 103.246 37.4044 102.956 35.6656Z" fill="#976F0C" stroke-width="2px"></path><circle class="fillCls9" cx="108.159" cy="38.1592" r="1.15923" fill="#976F0C" stroke-width="2px"></circle><path class="fillCls9" d="M109.727 31.0112C109.366 30.7223 108.887 30.5681 108.374 30.4987C107.391 30.3658 107.286 31.6116 108.128 32.1347C108.232 32.1991 108.331 32.2648 108.423 32.3316C108.616 32.4708 108.813 32.6373 109.007 32.8191C109.719 33.4863 110.877 33.0392 110.505 32.1371C110.319 31.6861 110.067 31.2829 109.727 31.0112Z" fill="#976F0C" stroke-width="2px"></path><circle class="fillCls9" cx="105.274" cy="32.4776" r="1.15923" fill="#976F0C" stroke-width="2px"></circle></g><g class="orbit2-purple-moon" style="animation-duration: 3s;"><circle class="fillCls6" cx="11.3758" cy="108.408" r="6.37576" fill="#D676E6" stroke-width="2px"></circle><path class="fillCls7" d="M12.2463 108.697C13.6415 106.827 14.8545 103.057 14.8545 103.057C14.8545 103.057 15.7075 103.623 16.3036 104.35C16.6992 104.832 17.0571 105.509 17.0571 105.509C17.0571 105.509 15.2649 108.559 13.6953 110.146C11.8789 111.983 7.89915 113.74 7.89915 113.74C7.89915 113.74 7.53234 113.51 7.31953 113.334C7.07298 113.13 6.71094 112.754 6.71094 112.754C6.71094 112.754 10.703 110.765 12.2463 108.697Z" fill="#872896" stroke-width="2px"></path></g><g class="orbit2-green-moon" style="animation-duration: 3s;"><circle class="fillCls4" cx="135.459" cy="106.47" r="9.52562" fill="#9ACCCD" stroke-width="2px"></circle><path class="fillCls5" d="M133.389 113.096C133.361 114.262 135.048 115.994 135.048 115.994C135.048 115.994 135.805 116.035 136.288 115.996C136.779 115.956 137.533 115.789 137.533 115.789C137.533 115.789 138.761 113.375 138.361 112.268C137.918 111.041 136.288 110.612 135.045 111.026C133.805 111.267 133.419 111.833 133.389 113.096Z" fill="#67999A" stroke-width="2px"></path><path class="fillCls5" d="M134.63 99.8439C133.387 98.1871 135.044 96.9448 135.044 96.9448C135.044 96.9448 138.772 96.4897 142.085 99.637C145.647 103.021 144.943 107.713 144.943 107.713C144.943 107.713 143.915 107.943 143.328 107.713C142.181 107.264 143.078 105.542 142.085 104.814C141.163 104.137 140.104 105.081 139.186 104.4C138.315 103.753 138.711 102.682 137.944 101.915C137.116 101.087 135.873 101.501 134.63 99.8439Z" fill="#67999A" stroke-width="2px"></path><path class="fillCls5" d="M131.318 101.915C131.59 100.443 130.904 98.1045 130.904 98.1045C130.904 98.1045 128.135 99.5775 126.762 102.329C125.209 105.444 126.348 109.37 126.348 109.37C126.348 109.37 129.055 109.027 129.661 107.713C130.068 106.832 129.483 106.182 129.661 105.228C129.928 103.806 131.055 103.337 131.318 101.915Z" fill="#67999A" stroke-width="2px"></path></g></svg>